<?xml version="1.0" encoding="UTF-8" standalone="no"?>
<svg
   xmlns:dc="http://purl.org/dc/elements/1.1/"
   xmlns:cc="http://creativecommons.org/ns#"
   xmlns:rdf="http://www.w3.org/1999/02/22-rdf-syntax-ns#"
   xmlns:svg="http://www.w3.org/2000/svg"
   xmlns="http://www.w3.org/2000/svg"
   viewBox="0 0 811.23499 606.29376"
   height="606.29376"
   width="811.23499"
   xml:space="preserve"
   version="1.1"
   id="svg2"><metadata
     id="metadata8"><rdf:RDF><cc:Work
         rdf:about=""><dc:format>image/svg+xml</dc:format><dc:type
           rdf:resource="http://purl.org/dc/dcmitype/StillImage" /><dc:title></dc:title></cc:Work></rdf:RDF></metadata><defs
     id="defs6"><clipPath
       id="clipPath34"
       clipPathUnits="userSpaceOnUse"><path
         id="path36"
         d="m 0,485.035 648.988,0 L 648.988,0 0,0 0,485.035 Z" /></clipPath></defs><g
     transform="matrix(1.25,0,0,-1.25,0,606.29375)"
     id="g10"><path
       id="path12"
       style="fill:#ee3c24;fill-opacity:1;fill-rule:nonzero;stroke:none"
       d="m 0,0 648.988,0 0,485.035 L 0,485.035 0,0 Z" /><g
       transform="translate(322.0781,29.4365)"
       id="g14"><path
         id="path16"
         style="fill:#eddb9b;fill-opacity:1;fill-rule:nonzero;stroke:none"
         d="M 0,0 279.723,121.975 285.49,108.65 1.11,-2.562 0,0 Z" /></g><g
       transform="translate(322.0781,29.4365)"
       id="g18"><path
         id="path20"
         style="fill:none;stroke:#231f20;stroke-width:0.92699999;stroke-linecap:butt;stroke-linejoin:miter;stroke-miterlimit:4;stroke-dasharray:none;stroke-opacity:1"
         d="M 0,0 279.723,121.975 285.49,108.65 1.11,-2.562 0,0 Z" /></g><g
       transform="translate(319.1836,39.9678)"
       id="g22"><path
         id="path24"
         style="fill:#eddb9b;fill-opacity:1;fill-rule:nonzero;stroke:none"
         d="M 0,0 294.905,78.45 298.598,64.41 0.71,-2.699 0,0 Z" /></g><g
       transform="translate(319.1836,39.9678)"
       id="g26"><path
         id="path28"
         style="fill:none;stroke:#231f20;stroke-width:0.92699999;stroke-linecap:butt;stroke-linejoin:miter;stroke-miterlimit:4;stroke-dasharray:none;stroke-opacity:1"
         d="M 0,0 294.905,78.45 298.598,64.41 0.71,-2.699 0,0 Z" /></g><g
       id="g30"><g
         clip-path="url(#clipPath34)"
         id="g32"><g
           transform="translate(69.3721,391.1025)"
           id="g38"><path
             id="path40"
             style="fill:#000000;fill-opacity:1;fill-rule:nonzero;stroke:none"
             d="m 0,0 c -0.337,-1.826 -1.428,-3.455 -3.274,-4.886 -0.463,-0.358 -2.163,-1.415 -5.102,-3.168 0,-0.537 0.105,-1.637 0.314,-3.301 0.21,-1.665 0.316,-2.98 0.316,-3.947 0,-1.11 -0.106,-2.093 -0.316,-2.952 -0.293,-1.433 -0.755,-3.634 -1.385,-6.605 -0.42,-2.038 -2.771,-4.831 -7.054,-8.374 -4.577,-3.83 -8.397,-5.746 -11.462,-5.746 -1.974,0 -3.611,0.357 -4.912,1.074 -1.302,0.716 -3.065,2.236 -5.29,4.563 l 1.008,5.207 c 0.377,-1.716 1.344,-3.327 2.896,-4.831 1.679,-1.609 3.422,-2.416 5.227,-2.416 4.619,0 6.929,2.04 6.929,6.121 0,0.86 -0.106,2.2 -0.316,4.027 -0.21,1.826 -0.315,3.168 -0.315,4.027 0,0.966 0.105,1.789 0.315,2.469 0.882,3.185 3.233,6.675 7.054,10.469 4.198,4.117 8.713,7.07 13.54,8.859 C -1.448,0.59 -0.841,0.394 0,0" /></g><g
           transform="translate(117.2373,361.8418)"
           id="g42"><path
             id="path44"
             style="fill:#000000;fill-opacity:1;fill-rule:nonzero;stroke:none"
             d="m 0,0 c -11.967,-6.909 -18.327,-10.362 -19.083,-10.362 l -3.653,0 c -0.378,2.899 -0.567,5.745 -0.567,8.536 0,2.578 0.166,5.101 0.503,7.571 l -1.07,0.965 c -1.974,-2.004 -5.878,-4.921 -11.714,-8.751 -5.542,-3.615 -9.909,-6.191 -13.101,-7.73 l -2.96,0 c -0.587,0.5 -0.88,1.376 -0.88,2.63 0,0.393 0.576,2.478 1.731,6.255 1.154,3.776 1.732,5.914 1.732,6.416 0,1.932 -0.377,3.598 -1.133,4.992 -0.378,0.823 -1.03,1.737 -1.952,2.739 -0.714,0.752 -1.072,1.323 -1.072,1.718 0,0.464 0.401,1.539 1.198,3.222 0.964,1.896 1.532,3.166 1.7,3.811 1.217,-0.394 3.358,-0.59 6.425,-0.59 3.483,0 6.044,0.59 7.682,1.771 1.091,-1.861 1.638,-3.328 1.638,-4.402 0,-0.502 -0.693,-2.863 -2.078,-7.087 -1.387,-4.224 -2.079,-6.568 -2.079,-7.033 0,-0.645 0.127,-1.101 0.378,-1.369 0.251,-0.269 0.524,-0.51 0.819,-0.725 l 2.519,0 c 1.134,0 3.316,1.361 6.549,4.08 3.024,2.506 4.976,4.437 5.859,5.799 2.432,3.65 6.443,7.819 12.028,12.509 -0.798,-3.043 -1.196,-7.069 -1.196,-12.08 0,-3.472 0.335,-6.12 1.006,-7.946 1.26,-3.543 3.695,-5.314 7.306,-5.314 0.672,0 1.375,0.061 2.111,0.187 C -0.621,-0.063 -0.169,0 0,0" /></g><g
           transform="translate(149.4199,391.1025)"
           id="g46"><path
             id="path48"
             style="fill:#000000;fill-opacity:1;fill-rule:nonzero;stroke:none"
             d="m 0,0 c -0.337,-1.826 -1.428,-3.455 -3.275,-4.886 -0.462,-0.358 -2.163,-1.415 -5.102,-3.168 0,-0.537 0.105,-1.637 0.314,-3.301 0.21,-1.665 0.316,-2.98 0.316,-3.947 0,-1.11 -0.106,-2.093 -0.316,-2.952 -0.293,-1.433 -0.755,-3.634 -1.384,-6.605 -0.421,-2.038 -2.772,-4.831 -7.054,-8.374 -4.578,-3.83 -8.398,-5.746 -11.463,-5.746 -1.973,0 -3.611,0.357 -4.912,1.074 -1.302,0.716 -3.064,2.236 -5.29,4.563 l 1.008,5.207 c 0.378,-1.716 1.344,-3.327 2.896,-4.831 1.68,-1.609 3.422,-2.416 5.227,-2.416 4.619,0 6.929,2.04 6.929,6.121 0,0.86 -0.106,2.2 -0.316,4.027 -0.21,1.826 -0.314,3.168 -0.314,4.027 0,0.966 0.104,1.789 0.314,2.469 0.883,3.185 3.233,6.675 7.055,10.469 4.197,4.117 8.712,7.07 13.54,8.859 C -1.449,0.59 -0.842,0.394 0,0" /></g><g
           transform="translate(188.5928,370.6465)"
           id="g50"><path
             id="path52"
             style="fill:#000000;fill-opacity:1;fill-rule:nonzero;stroke:none"
             d="m 0,0 c -1.597,-2.435 -5.038,-5.798 -10.329,-10.094 -6.97,-5.656 -10.602,-8.607 -10.895,-8.858 0,0.786 0.199,2.352 0.598,4.697 0.398,2.346 0.599,3.732 0.599,4.161 0,3.257 -0.252,5.673 -0.756,7.249 -1.093,3.149 -3.234,4.725 -6.424,4.725 -2.855,0 -5.69,-2.023 -8.503,-6.068 -1.975,-2.864 -4.01,-6.891 -6.108,-12.08 -1.177,-2.934 -2.352,-5.87 -3.528,-8.805 -1.804,0 -2.708,0.502 -2.708,1.504 0,0.287 0.756,1.351 2.268,3.194 1.511,1.844 2.33,3.248 2.456,4.215 1.049,7.051 2.099,14.621 3.149,22.711 l 0,4.133 c -0.463,0.429 -0.904,0.644 -1.322,0.644 -0.337,0 -0.63,-0.125 -0.883,-0.375 1.763,0.967 3.065,5.994 3.906,15.087 0.67,9.52 1.322,19.023 1.952,28.508 0.923,12.169 2.204,21.082 3.841,26.738 4.997,2.434 10.979,4.51 17.95,6.228 -2.645,-12.707 -6.424,-28.402 -11.337,-47.086 -5.038,-19.041 -8.334,-32.321 -9.888,-39.837 1.89,0.644 4.745,3.078 8.566,7.302 5.248,5.869 8.27,9.181 9.069,9.932 1.596,-0.251 3.001,-1.736 4.22,-4.457 0.712,-1.575 1.678,-4.607 2.897,-9.099 1.216,-4.493 2.287,-7.742 3.212,-9.745 C -4.892,-3.758 -2.227,-1.933 0,0" /></g><g
           transform="translate(188.7803,385.3037)"
           id="g54"><path
             id="path56"
             style="fill:#000000;fill-opacity:1;fill-rule:nonzero;stroke:none"
             d="M 0,0 6.425,2.632 16.123,10.953 9.259,9.986 0,0 Z m 15.809,-23.033 c -2.52,-2.29 -5.019,-4.581 -7.496,-6.872 -2.477,-2.147 -4.912,-3.221 -7.305,-3.221 -2.1,0 -3.696,0.931 -4.786,2.791 -0.798,1.324 -1.198,2.686 -1.198,4.082 0,3.076 0.526,5.456 1.575,7.141 1.092,1.896 4.325,5.635 9.699,11.218 0,-0.822 -0.053,-2.245 -0.157,-4.267 -0.105,-2.023 -0.158,-3.176 -0.158,-3.462 0,-0.144 -0.021,-0.502 -0.063,-1.074 l 0,-1.397 c 0,-4.116 1.575,-6.173 4.724,-6.173 2.057,0 3.779,0.411 5.165,1.234" /></g><g
           transform="translate(458.1562,242.5186)"
           id="g58"><path
             id="path60"
             style="fill:#000000;fill-opacity:1;fill-rule:nonzero;stroke:none"
             d="m 0,0 c 0,-73.822 -59.841,-133.663 -133.663,-133.663 -73.819,0 -133.661,59.841 -133.661,133.663 0,73.818 59.842,133.661 133.661,133.661 C -59.841,133.661 0,73.818 0,0" /></g><g
           transform="translate(460.0547,240.4561)"
           id="g62"><path
             id="path64"
             style="fill:#217c50;fill-opacity:1;fill-rule:nonzero;stroke:none"
             d="M 0,0 C -0.161,3.086 -0.965,-1.638 -0.357,2.023 0.059,1.598 0.364,0.991 0,0" /></g><g
           transform="translate(459.0742,252.8481)"
           id="g66"><path
             id="path68"
             style="fill:#217c50;fill-opacity:1;fill-rule:nonzero;stroke:none"
             d="m 0,0 c -0.447,1.222 -0.772,2.495 -1.104,3.801 -0.359,1.303 -0.655,2.646 -0.907,4.022 -0.127,0.687 -0.242,1.383 -0.348,2.086 -0.132,0.698 -0.264,1.403 -0.398,2.112 -0.256,1.419 -0.487,2.86 -0.713,4.312 -1.122,5.747 -2.341,11.691 -5.017,16.518 -0.519,1.17 1.529,0.179 0.263,2.796 -2.887,4.585 -5.624,10.721 -8.768,17.052 -3.123,6.331 -6.539,12.896 -9.791,18.584 l 0.827,-0.363 c -0.643,1.068 -1.715,1.987 -2.801,2.9 -1.079,0.922 -2.183,1.828 -2.983,2.861 0.206,0.199 0.857,-0.375 0.762,0.337 -1.101,-0.069 -3.378,3.348 -4.632,3.702 -0.467,0.97 0.097,1.36 -0.555,2.592 l -1.738,0.411 c -2.223,0.736 -4.057,2.414 -5.871,4.427 -0.895,1.019 -1.914,1.977 -2.951,2.939 -1.063,0.931 -2.148,1.867 -3.46,2.487 0.357,0.007 0.91,-0.204 0.696,0.243 -3.99,2.292 -8.191,5.139 -12.679,7.786 -1.114,0.668 -2.236,1.342 -3.36,2.016 -1.152,0.623 -2.305,1.246 -3.454,1.867 -2.27,1.29 -4.651,2.324 -6.932,3.368 0.51,0.132 1.119,0.517 0.763,1.131 -0.881,-0.639 -3.816,0.407 -6.347,1.323 -0.675,1.527 -4.628,0.858 -7.318,2.562 l 0.331,0.116 c -2.549,-0.242 -3.06,1.721 -5.258,1.085 l -1.147,1.26 c -1.401,-1.118 -3.018,1.663 -5.085,1.471 l -0.019,-0.31 c -1.822,0.173 -2.57,1.054 -4.27,1.202 l -0.116,0.2 c -3.905,0.566 -6.023,1.682 -6.136,0.545 -1.195,1.156 3.838,-0.254 1.958,1.453 -6.524,0.699 -13.107,1.169 -19.681,1.459 l -4.983,0.08 -1.244,0.026 -1.216,-0.028 -2.471,-0.065 c -3.297,-0.009 -6.568,-0.344 -9.825,-0.577 -1.519,0.294 -2.479,0.301 -2.864,0.7 -1.275,-0.396 -4.889,-0.817 -5.95,-1.67 0.43,0.102 -0.931,0.435 -1.629,0.368 -2.437,-0.004 -2.333,-1.656 -4.974,-1.757 0.946,0.533 1.22,0.98 0.786,1.321 -0.999,-0.693 -2.228,-1.171 -3.522,-1.587 -0.649,-0.2 -1.309,-0.404 -1.965,-0.607 -0.649,-0.228 -1.292,-0.459 -1.906,-0.71 0.339,0.305 0.923,0.589 0.735,0.912 -2.502,-1.785 -5.156,-1.186 -7.348,-2.665 l 0.688,0.937 c -4.139,-0.544 -0.696,-1.71 -4.182,-2.383 0.728,0.469 0.358,0.62 0.408,0.927 -1.359,-1.093 -3.255,-2.13 -5.216,-2.992 -0.984,-0.423 -1.953,-0.877 -2.85,-1.339 -0.9,-0.45 -1.738,-0.886 -2.437,-1.315 0.14,0.163 0.014,0.308 0.014,0.308 -1.604,-0.769 -3.241,-1.558 -4.903,-2.405 -0.831,-0.421 -1.668,-0.857 -2.497,-1.329 -0.821,-0.487 -1.612,-1.053 -2.396,-1.649 -1.381,-0.452 -0.401,1.649 -3.568,-0.457 0.78,-1.034 -5.115,-3.917 -2.433,-3.986 -0.705,-0.381 -1.513,-0.818 -2.358,-1.275 -0.822,-0.494 -1.675,-1.018 -2.491,-1.539 -1.63,-1.044 -3.123,-2.061 -3.803,-2.928 0.831,1.299 -2.232,0.331 -0.183,2.081 l -2.101,-0.615 c -0.093,0.622 1.773,1.155 0.841,1.302 -1.031,-0.905 -3.855,-3.716 -4.891,-4.364 -1.361,-2.31 -2.156,-4.857 -4.887,-7.781 1.008,1.683 -1.799,0.327 -1.027,1.38 l -1.144,-2.86 c -0.291,-0.701 -0.521,-1.455 -0.717,-1.993 -0.187,-0.544 -0.312,-0.907 -0.312,-0.907 -0.863,-1.003 -0.958,0.523 -2.03,-1.113 0.324,-0.171 -0.091,-0.927 -0.277,-1.541 -0.486,-0.242 -3.351,-4.357 -4.754,-3.939 -0.781,-0.122 1.216,1.818 -0.114,1.004 -0.817,-0.927 -1.129,-1.506 -1.429,-2.093 -0.307,-0.581 -0.611,-1.162 -1.364,-2.138 l -0.169,0.071 c -0.578,-0.581 -1.214,-1.608 -1.481,-2.374 -0.244,-0.784 -0.145,-1.286 0.656,-0.789 0.701,0.878 -0.907,0.145 0.426,1.229 -0.123,-1.34 -1.531,-3.806 -2.949,-5.782 0.31,0.794 -0.038,0.913 -0.152,1.399 -0.556,-1.618 -1.163,-3.237 -1.872,-4.836 -0.715,-1.595 -1.518,-3.18 -2.206,-4.88 0.514,-0.371 -0.306,1.755 0.249,2.055 -1.519,-1.816 -2.53,-4.041 -3.363,-6.216 -0.803,-2.195 -1.697,-4.204 -3.052,-5.715 0.16,0.63 0.946,-0.071 0.769,-0.035 -0.991,-2.008 -1.78,-1.541 -2.078,-3.015 -0.542,0.075 -0.635,-1.742 -1.004,-3.215 0.07,-0.869 -0.386,-0.268 0.044,0.977 -0.161,-1.073 -0.889,-3.612 -1.738,-6.45 -0.396,-1.43 -0.856,-2.925 -1.36,-4.335 -0.523,-1.405 -0.937,-2.773 -1.475,-3.878 0.387,-0.018 0.396,-3.182 0.147,-4.248 l -0.707,0.623 c -0.707,-0.871 -0.763,-3.64 -1.501,-3.667 0.223,-1.265 0.531,1.006 0.787,3.197 0.26,2.189 0.646,4.254 0.554,2.605 -0.952,-0.626 0.19,-4.67 -0.746,-3.727 -0.468,-2.198 -0.091,-4.475 -1.176,-6.435 0.239,0.579 -0.806,2.009 -1.067,0.208 -0.417,-3.182 0.229,-0.968 0.044,-3.565 l 0.027,-0.824 c 0.033,-0.414 0.066,-0.828 0.066,-0.828 0.779,-0.217 -0.465,-2.802 0.578,-1.752 -0.704,-0.305 -0.191,-4.604 -1.45,-4.143 l -1.002,0.546 c -0.047,-1.384 0.928,-2.342 1.304,-3.425 -0.109,-0.173 -0.347,-0.514 -0.511,-0.436 1.601,-0.315 -0.426,-3.177 0.828,-4.952 -0.158,-0.736 -0.252,-1.575 -0.321,-2.439 -0.053,-0.829 -0.108,-1.682 -0.159,-2.488 -0.026,-1.635 -0.113,-3.08 -0.595,-3.776 0.282,-1.102 0.539,-2.15 0.775,-3.232 0.245,-1.081 0.389,-2.201 0.314,-3.468 -0.193,0.488 -0.283,1.168 -0.643,1.286 -0.351,-1.617 0.101,-1.98 0.47,-3.398 -0.318,0.3 -0.565,-3.243 -0.903,-5.092 0.754,-2.136 1.516,-1.248 2.067,-1.392 -0.661,-1.111 -0.093,-2.605 0.448,-4.145 0.545,-1.543 1.12,-3.121 0.731,-4.491 -0.194,0.348 -0.566,1.09 -0.887,1.515 -0.292,0.43 -0.575,0.533 -0.577,-0.41 -0.547,-1.15 -0.029,-2.098 0.619,-3.155 0.676,-1.053 1.373,-2.24 1.486,-3.891 l 1.055,1.099 c -0.39,-1.601 2.033,-4.354 0.657,-4.414 0.704,-0.916 0.731,-3.778 1.838,-3.04 0.166,-1.336 0.547,-2.758 1.005,-4.197 0.512,-1.418 1.135,-2.838 1.68,-4.218 0.279,-0.687 0.526,-1.371 0.772,-2.023 0.26,-0.647 0.488,-1.277 0.665,-1.884 0.355,-1.215 0.509,-2.342 0.327,-3.337 0.481,-0.621 1.184,-2.408 1.591,-1.769 0.054,1.435 -1.253,1.363 -1.006,2.007 0.318,-0.609 0.696,-0.59 0.886,-0.581 0.485,-1.591 1.003,-2.801 -0.67,-1.88 1.015,-3.664 3.598,-2.434 5.504,-6.687 -0.563,-0.081 -0.56,-0.49 0.197,-1.637 l 1.04,-0.888 c 0.543,-0.425 1.086,-0.85 1.086,-0.85 1.445,-2.645 -0.092,-2.097 -0.812,-2.641 1.007,-1.294 2.049,-3.001 3.058,-3.205 l 0.224,-2.261 c -0.176,1.653 1.221,-0.781 1.84,-1.274 l -0.62,0.494 c -0.144,-0.473 1.146,-1.878 1.851,-2.543 0.149,0.261 -0.028,0.802 -0.305,1.392 -0.266,0.599 -0.606,1.266 -0.845,1.736 0.789,-0.444 1.465,-1.547 2.53,-2.11 -0.926,-0.248 1.132,-2.456 1.854,-3.524 0.755,-1.293 1.681,-0.768 1.924,-1.12 -0.325,-0.324 1.513,-1.864 0.274,-1.415 -0.443,0.286 -0.413,1.157 -1.272,1.522 0.379,-0.948 -0.299,-1.382 1.473,-2.538 1.325,-0.864 1.056,1.442 2.516,-1.097 -0.654,0.422 -1.008,0.292 -1.633,0.528 0,0 0.358,-0.589 0.717,-1.177 0.174,-0.299 0.363,-0.586 0.51,-0.797 0.144,-0.213 0.241,-0.356 0.241,-0.356 l 0.672,0.46 c 0.102,-0.402 -0.124,-0.268 -0.088,-0.459 1.177,-0.007 3.039,-2.813 4.137,-2.582 1.023,-0.886 1.673,-2.37 2.546,-3.342 l -0.227,0.125 c 0.413,-0.72 1.053,-1.396 1.764,-1.943 0.735,-0.52 1.53,-0.925 2.211,-1.156 l -0.168,-0.087 c 0.615,-0.61 2.237,-1.869 3.371,-2.198 1.329,-1.814 -1.333,-2.814 1.223,-3.535 1.786,-1.375 3.645,-0.987 3.251,-0.026 1.443,-1.388 3.303,-2.452 5.055,-3.579 1.802,-1.061 3.536,-2.131 4.761,-3.666 0.652,-0.034 0.447,0.322 1.568,-0.1 1.222,-0.793 2.531,-1.522 3.854,-2.226 1.316,-0.716 2.719,-1.273 4.028,-1.92 2.611,-1.32 5.136,-2.431 6.932,-4.141 -1.68,0.389 -0.426,-0.693 -0.572,-1.127 1.561,0.067 1.283,-1.344 2.221,-0.403 0.152,0.73 0.4,0.978 -0.994,1.888 1.677,-0.495 3.756,-1.175 5.593,-1.951 1.847,-0.745 3.516,-1.426 4.318,-2.074 -0.808,0.627 -0.026,0.597 0.756,0.563 -0.299,-0.511 0.146,-1.015 0.915,-1.421 0.767,-0.412 1.886,-0.63 2.877,-0.708 l 0.456,0.603 1.02,-1.045 c 0.783,0.022 1.171,1.187 2.851,0.046 0.032,-0.29 0.073,-0.585 0.369,-0.859 1.05,0.055 2.317,0.163 3.562,0.124 0.623,-0.02 1.241,-0.076 1.828,-0.195 0.59,-0.105 1.155,-0.245 1.659,-0.491 l 1.566,-1.325 c 0.94,-0.057 2.582,0.283 1.023,0.864 0.885,-0.309 1.693,-0.602 2.435,-0.812 0.742,-0.203 1.407,-0.384 1.994,-0.563 1.174,-0.359 2.033,-0.713 2.573,-1.232 1.671,0.292 3.441,0.646 5.304,0.794 0.935,0.089 1.867,0.132 2.853,0.183 1.028,0.082 2.072,0.142 3.126,0.184 1.053,0.042 2.114,0.066 3.174,0.074 0.968,0.043 1.935,0.086 2.891,0.128 2,0.082 3.963,0.052 5.803,0.2 l -0.187,-0.545 c 2.022,-0.341 0.967,1 2.372,0.739 -0.603,-0.552 1.609,-0.979 0.093,-1.708 2.927,-0.373 3.597,1.259 5.397,1.72 0.195,0.721 -1.426,-0.63 -1.173,0.292 0.279,0.284 3.976,-0.043 4.257,1.05 0.765,-0.3 0.339,-1.156 0.015,-1.622 0,0 0.416,0.173 0.824,0.385 0.408,0.203 0.817,0.406 0.817,0.406 1.151,-0.418 0.049,-1.174 -1.063,-1.964 -1.116,-0.729 -2.245,-1.496 -0.999,-2.1 l 0.807,0.182 c 0.405,0.084 0.803,0.198 0.803,0.198 1.748,-0.868 -4.175,-1.813 0.029,-1.632 1.72,0.834 2.956,2.602 1.312,2.781 3.603,0.96 1.256,2.719 5.116,3.413 0.585,-0.175 -0.172,-0.396 -0.967,-0.637 -0.799,-0.211 -1.635,-0.461 -1.179,-0.82 0.499,-0.126 0.973,-0.118 1.43,-0.037 0.454,0.101 0.887,0.282 1.31,0.475 0.847,0.387 1.646,0.835 2.486,0.877 -1.878,-0.029 -0.602,1.355 0.49,1.802 2.055,-0.034 -1.029,-1.253 1.754,-0.725 0.303,0.714 2.662,1.86 0.409,1.658 0.61,1.605 2.903,0.427 4.067,1.866 1.171,-0.676 -2.157,-2.935 0.978,-2.549 -0.378,0.391 0.467,0.914 1.117,1.55 0.657,0.615 1.148,1.234 0.17,1.628 1.214,0.136 1.574,-0.516 0.915,-1.344 1.836,0.022 3.412,2.936 4.571,1.403 l 0.221,1.114 c 0.613,-0.095 1.415,-0.032 2.429,-0.182 0.715,0.273 1.742,1.024 2.634,1.531 0.881,0.536 1.627,0.855 1.855,0.166 0.39,0.336 3.6,1.716 1.957,2.061 -2.212,-0.334 -1.975,-1.686 -3.602,-0.948 1.823,-0.378 2.774,1.414 3.736,2.25 l 0.421,-0.421 c 0.592,0.476 2.16,1.146 2.298,1.899 -0.362,-0.543 0.069,-0.75 0.652,-0.601 l 0.307,1.108 c 2.46,1.74 1.323,-1.012 3.802,0.569 0,0 -0.102,-0.105 -0.253,-0.263 -0.158,-0.149 -0.367,-0.349 -0.577,-0.548 -0.422,-0.399 -0.844,-0.8 -0.844,-0.8 0.362,0.367 1.664,0.064 2.756,1.03 0.105,0.951 0.533,2.268 0.636,3.019 1.249,1.108 1.079,-0.385 2.076,1.103 l -1.367,-1.86 c -0.165,-0.368 1.907,-0.419 3.796,0.775 1.063,1.002 2.298,3.117 0.205,2.277 0.917,0.606 2.481,1.042 2.049,0.1 1.967,1.578 -0.733,0.519 0.816,2.08 1.023,0.047 3.668,1.066 5.485,1.427 l -1.109,-2.376 1.255,0.871 c -1.018,-1.988 1.284,-0.048 1.007,-1.587 0.964,0.479 1.804,1.508 2.419,2.386 -3.461,-0.496 1.239,4.017 -0.463,4.706 1.479,1.434 2.598,1.08 3.555,0.986 0.961,-0.11 1.799,0.015 2.616,2.373 -0.809,-0.15 -0.083,2.083 -1.737,0.041 1.024,0.772 1.087,1.356 1.231,1.929 0.151,0.566 0.365,1.134 1.665,1.933 -1.17,-2.023 2.847,0.485 1.149,-2.457 -0.101,0.269 -0.499,0.028 -0.903,-0.335 -0.421,-0.345 -0.856,-0.809 -0.996,-1.027 1.2,0.257 0.934,-1.385 2.89,0.441 1.081,1.241 2.678,2.807 1.86,3.177 -0.682,0.607 -1.72,-1.775 -1.61,-0.394 1.049,1.224 1.923,1.669 2.496,2.092 0.558,0.435 0.842,0.817 0.716,1.862 -1.292,-1.569 -2.328,-1.24 -2.745,-0.763 -0.001,0 0.358,0.463 0.681,0.957 0.331,0.485 0.662,0.972 0.662,0.972 l 0.125,-0.749 c 2.891,2.399 -0.035,1.56 2.561,4.043 l 1.999,0.479 c 0.251,-1.392 -3.916,-3.556 -2.244,-4.244 0.844,0.837 1.247,1.545 1.668,2.205 0.408,0.673 0.811,1.321 1.709,2.018 -0.215,-0.471 -0.63,-1.014 -0.839,-1.488 0.588,0.6 2.835,-0.214 4.083,3.221 0.716,1.689 -0.168,0.738 -0.623,1.172 1.102,1.558 1.703,2.659 2.204,3.614 0.507,0.951 0.91,1.763 1.56,2.796 0.698,-1.135 2.603,3.453 2.056,0.519 -0.672,-0.29 -1.726,-1.608 -2.725,-2.985 -0.992,-1.381 -1.806,-2.923 -1.77,-3.828 0.997,0.094 0.489,-0.468 -0.189,-1.252 -0.713,-0.755 -1.609,-1.712 -1.32,-2.507 2.066,2.313 3.058,1.304 4.1,1.111 0.593,0.65 0.807,1.569 1.015,2.067 -0.461,0.834 -1.16,-0.065 -1.91,0.451 1.151,1.301 2.203,2.648 2.911,3.998 0.712,1.348 1.196,2.612 1.393,3.63 1.024,0.69 1.544,-0.1 0.816,-1.274 1.128,1.737 2.219,3.575 3.388,5.334 1.203,1.738 2.29,3.519 3.39,5.157 -2.51,-1.486 1.873,3.956 -0.042,3.034 -1.307,-1.668 -3.093,-2.681 -3.083,-1.379 0.719,1.067 0.529,-0.347 1.064,-0.032 0.064,0.906 0.666,1.299 1.2,1.733 0.516,0.442 0.985,0.915 0.803,1.923 -1.279,-3.525 1.221,-1.471 1.906,-2.609 0.685,2.731 0.655,-0.484 1.897,1.94 0.752,2.695 1.615,5.978 2.645,8.814 1.207,1.545 2.087,3.8 2.825,6.035 0.628,2.28 1.105,4.543 1.626,6.149 1.033,1.539 1.924,0.009 2.67,1.82 0.601,2.206 -1.783,-1.245 -0.303,1.839 l 0.156,-0.381 c -0.022,0.537 0.676,1.951 1.031,3.457 0.371,1.502 0.554,3.047 -0.232,3.726 l 1.119,-1.317 c 0.265,0.589 0.088,1.228 0.06,1.766 0.446,-0.07 1.014,0.566 1.071,-0.503 0.35,0.461 0.58,0.966 0.732,1.496 0.127,0.535 0.176,1.096 0.196,1.667 0.039,1.142 -0.04,2.323 0.142,3.449 l -1.065,-1.303 c 0.013,0.984 0.101,1.869 0.231,2.705 0.122,0.838 0.23,1.636 0.382,2.424 0.276,1.577 0.646,3.142 0.688,5.02 l 0.788,-0.192 -0.308,2.273 c 0.735,-0.612 1.388,1.427 0.831,2.644 0,0 0.378,-1.492 0.756,-2.983 0.188,-0.759 0.376,-1.519 0.517,-2.088 0.15,-0.575 0.21,-0.954 0.209,-0.954 -0.658,-1.58 -0.761,1.884 -1.665,0.936 -0.769,-0.796 -1.004,-4.267 -0.311,-4.94 0.256,1.322 0.089,1.409 -0.066,2.477 1.163,0.309 0.863,-1.715 1.472,-2.83 0.044,0.713 0.508,1.675 0.177,1.871 0.181,-0.727 0.248,-1.447 0.236,-2.274 -0.009,-0.828 -0.091,-1.765 -0.302,-2.916 -0.154,1.624 -0.833,-0.735 -1.042,-0.095 0.934,-0.336 0.847,-2.601 0.055,-5.395 -0.787,-0.891 -0.911,-2.241 -0.976,-3.784 -0.031,-0.773 -0.048,-1.592 -0.123,-2.42 -0.083,-0.827 -0.28,-1.646 -0.578,-2.436 -0.297,0.789 -0.508,1.645 -0.652,2.562 -0.17,0.924 -0.251,1.904 -0.221,2.929 -0.97,-1.899 -0.438,-2.273 -1.515,-4.137 0.445,-1.16 1.34,-2.153 1.021,-4.927 l -0.742,0.071 c -0.377,-2.47 0.618,-2.804 -0.587,-5.755 -0.498,-1.269 -1.075,-2.516 -1.624,-3.757 -0.534,-1.245 -1.063,-2.476 -1.574,-3.67 -1.114,-2.347 -2.127,-4.561 -3.048,-6.417 l -0.728,0.181 c 0.182,-1.363 -0.567,-3.145 -1.459,-4.963 -0.892,-1.819 -2.074,-3.588 -2.533,-5.125 -0.408,-0.528 -0.785,-1.091 -1.163,-1.658 -0.395,-0.558 -0.773,-1.132 -1.136,-1.711 -0.727,-1.159 -1.401,-2.339 -2.048,-3.442 -1.361,-2.16 -2.653,-3.993 -3.939,-4.725 -5.099,-7.803 -10.231,-14.351 -17.59,-20.706 0,0.001 0.129,0.468 0.239,0.948 0.115,0.477 0.228,0.952 0.228,0.952 -0.721,-1.769 -1.221,-0.331 -2.389,-1.553 2.04,0.642 -1.039,-2.363 -1.532,-3.653 -0.479,-0.273 -0.945,-0.586 -1.42,-0.912 -0.484,-0.313 -0.964,-0.653 -1.438,-1.012 -0.946,-0.719 -1.867,-1.517 -2.749,-2.347 -1.77,-1.65 -3.491,-3.291 -4.841,-4.734 l -0.538,0.517 c -1.203,-1.682 -3.024,-2.834 -4.998,-3.932 -1.988,-1.083 -4.265,-1.893 -6.403,-3.018 -0.62,-0.025 -1.724,0.192 -2.959,-0.532 -1.787,-2.23 -3.014,-2.855 -6.249,-5.082 -2.549,-1.24 -6.962,-2.606 -9.782,-3.205 -4.719,-2.524 -9.842,-4.319 -15.135,-5.577 -1.323,-0.319 -2.65,-0.638 -3.979,-0.959 -1.343,-0.263 -2.689,-0.528 -4.037,-0.793 -2.687,-0.607 -5.419,-1.003 -8.15,-1.616 l -0.887,0.755 c -1.305,-0.393 -2.672,-0.629 -4.067,-0.882 -1.397,-0.222 -2.824,-0.472 -4.272,-0.567 -1.449,-0.096 -2.913,-0.16 -4.379,-0.206 l -1.1,-0.03 -0.549,-0.013 -0.275,-0.005 -0.398,0.005 c -0.704,0.024 -1.407,0.049 -2.108,0.072 -1.4,0.057 -2.788,0.112 -4.152,0.167 -1.391,0.079 -2.837,0.232 -4.2,0.322 -1.372,0.091 -2.705,0.179 -3.987,0.263 -1.261,0.11 -2.475,0.187 -3.636,0.216 l 1.069,1.347 c -1.39,0.415 -3.021,0.483 -4.231,0.412 -1.208,-0.072 -2.015,-0.405 -1.739,-0.984 -1.39,0.481 -3.201,0.613 -4.868,0.842 -1.652,0.294 -3.161,0.654 -3.917,1.45 -2.815,0.901 -3.674,0.21 -6.112,0.689 -1.395,0.525 -2.57,0.968 -3.63,1.367 -1.051,0.42 -1.995,0.769 -2.938,1.09 -0.943,0.32 -1.884,0.614 -2.927,0.924 -1.03,0.349 -2.156,0.731 -3.483,1.182 l 1.261,-0.595 c 0.688,0.077 0.958,0.641 -0.296,1.238 -1.04,0.196 -2.795,0.962 -4.1,1.451 -1.295,0.509 -2.193,0.657 -1.595,-0.575 -1.266,0.847 -2.71,1.582 -4.246,2.266 -1.511,0.734 -3.094,1.46 -4.68,2.176 -1.601,0.691 -3.124,1.522 -4.551,2.38 -1.415,0.876 -2.758,1.742 -3.784,2.848 0.163,-0.674 -1.124,0.041 -1.819,0.1 -1.112,0.709 -2.21,1.475 -3.279,2.262 -1.035,0.835 -2.062,1.665 -3.064,2.474 -2.039,1.563 -3.891,3.129 -5.801,4.102 -0.504,0.702 1.555,-0.181 -0.093,1.178 -1.113,0.636 -0.415,-0.478 -1.812,0.292 -1.759,1.224 -3.425,2.595 -5.018,4.032 -1.54,1.497 -2.988,3.083 -4.407,4.651 -1.382,1.605 -2.668,3.259 -3.989,4.812 -1.31,1.564 -2.514,3.156 -3.837,4.566 -4.76,4.97 -9.083,10.586 -12.736,16.533 -3.64,5.955 -6.783,12.116 -9.46,18.164 l 0.385,0.003 c -1.511,1.757 -2.096,4.343 -2.776,6.732 -0.594,2.429 -1.152,4.718 -2.693,6.085 -0.028,1.091 -0.962,3.892 -0.109,3.332 -0.923,1.562 -1.453,3.984 -1.812,6.627 -0.206,1.316 -0.429,2.675 -0.745,3.999 -0.28,1.331 -0.607,2.638 -1.134,3.837 0.05,-0.465 0.168,-0.719 0.412,-1.223 -0.035,1.3 -0.175,2.536 -0.369,3.75 -0.212,1.21 -0.349,2.417 -0.56,3.623 -0.195,1.209 -0.393,2.428 -0.541,3.685 -0.127,1.258 -0.132,2.561 -0.068,3.921 0.196,-0.534 0.381,-1.519 0.744,-1.649 0.535,2.112 -1.897,4.828 -0.208,6.056 -0.044,1.189 -0.874,0.817 -0.806,0.084 0.045,1.481 0.062,2.97 0.058,4.468 l -0.007,1.125 -0.007,0.564 0.017,0.675 c 0.02,0.727 0.039,1.455 0.058,2.186 0.017,1.465 0.034,2.939 0.051,4.417 0.067,1.559 0.134,3.124 0.202,4.693 l 0.089,2.362 0.188,2.317 0.373,4.65 c 0.204,1.544 0.408,3.087 0.611,4.627 l 0.321,2.309 0.443,2.282 c 1.494,4.21 2.216,4.145 2.61,3.947 0.398,-0.199 0.424,-0.555 0.763,2.935 0.47,0.457 -0.513,0.572 -0.148,0.565 0.136,1.358 0.879,2.232 1.539,3.007 0.697,0.767 1.322,1.434 1.194,2.448 -1.237,-0.396 -0.161,1.354 -0.743,1.614 1.151,2.452 2.139,3.796 2.886,5.076 0.764,1.273 1.212,2.508 1.717,4.589 l 0.375,-0.507 c 0.565,5.163 3.841,9.973 4.396,14.485 3.282,6.096 7.058,11.84 11.116,17.315 1.04,1.35 2.013,2.752 3.108,4.054 1.084,1.31 2.167,2.619 3.249,3.926 1.098,1.294 2.269,2.521 3.401,3.783 0.575,0.623 1.133,1.261 1.721,1.87 l 1.796,1.796 c 1.212,1.18 2.361,2.43 3.631,3.548 l 3.762,3.408 c 1.274,1.114 2.604,2.161 3.906,3.242 0.659,0.531 1.303,1.083 1.975,1.597 l 2.04,1.512 c 1.375,0.989 2.697,2.056 4.123,2.974 l 4.244,2.813 c 1.431,0.914 2.913,1.748 4.374,2.623 0.735,0.427 1.461,0.873 2.208,1.283 l 2.264,1.186 c 6.004,3.073 12.21,5.652 18.523,7.871 6.298,2.28 12.795,3.937 19.352,5.285 l 4.948,0.893 c 1.655,0.265 3.324,0.441 4.989,0.661 l 2.501,0.31 2.515,0.188 c 1.678,0.114 3.356,0.247 5.04,0.33 1.684,0.023 3.372,0.046 5.061,0.069 l 1.268,0.011 0.633,0.005 0.791,-0.027 2.406,-0.109 2.409,-0.118 c 0.802,-0.04 1.593,-0.072 2.487,-0.176 1.735,-0.183 3.472,-0.367 5.214,-0.551 3.165,-1.018 4.756,-1.652 6.525,-1.952 1.762,-0.278 3.598,-0.533 7.094,-0.835 -0.326,-0.182 -0.762,-0.157 -0.344,-0.454 0.583,1.166 4.818,-0.906 5.717,0.035 9.749,-2.536 18.67,-5.289 28.087,-9.699 -1.554,0.565 -2.698,0.021 -0.899,-0.707 0,0 0.542,-0.038 1.085,-0.076 0.544,-0.038 1.075,-0.11 1.075,-0.11 l 0.148,-0.452 c 1.261,-0.446 2.826,-0.59 1.767,0.38 11.963,-5.409 22.591,-13.285 31.818,-22.269 4.595,-4.532 8.833,-9.363 12.82,-14.358 0.983,-1.259 1.922,-2.552 2.887,-3.821 l 1.442,-1.908 1.361,-1.966 c 0.901,-1.314 1.84,-2.6 2.725,-3.922 l 2.597,-4.006 C -12.613,58.346 -8.159,51.007 -5.385,45.011 -2.262,35.739 -0.236,26.717 1.242,17.65 2.708,8.573 3.635,-0.56 4.2,-10.33 c 0,0 -0.781,0.644 -1.676,2.259 C 1.602,-6.455 0.716,-3.883 0,0" /></g><g
           transform="translate(460.0811,236.748)"
           id="g70"><path
             id="path72"
             style="fill:#217c50;fill-opacity:1;fill-rule:nonzero;stroke:none"
             d="M 0,0 C -0.579,-0.643 -1.063,-2.806 -1.727,-1.056 -1.172,-0.855 -0.522,0.236 0,0" /></g><g
           transform="translate(439.8594,183.4072)"
           id="g74"><path
             id="path76"
             style="fill:#217c50;fill-opacity:1;fill-rule:nonzero;stroke:none"
             d="m 0,0 c 0.123,-0.146 -0.576,-0.6 -0.741,-0.712 0.273,0.634 0.123,1.431 0.645,1.778 C -0.376,0.426 -0.075,0.394 0,0" /></g><g
           transform="translate(432.3701,171.2793)"
           id="g78"><path
             id="path80"
             style="fill:#217c50;fill-opacity:1;fill-rule:nonzero;stroke:none"
             d="M 0,0 C -0.32,0.477 0.966,3.247 1.868,4.78 L 0,0 Z" /></g><g
           transform="translate(422.8271,161.9746)"
           id="g82"><path
             id="path84"
             style="fill:#217c50;fill-opacity:1;fill-rule:nonzero;stroke:none"
             d="M 0,0 C -1.062,-0.582 -1.028,-0.203 -0.091,0.977 0.193,0.888 -0.005,0.405 0,0" /></g><g
           transform="translate(423.1562,160.4961)"
           id="g86"><path
             id="path88"
             style="fill:#217c50;fill-opacity:1;fill-rule:nonzero;stroke:none"
             d="M 0,0 C -0.706,-0.835 -1.299,-1.046 -1.875,-1.248 -1.504,-1.514 -0.438,0.84 0,0" /></g><g
           transform="translate(401.6455,141.9424)"
           id="g90"><path
             id="path92"
             style="fill:#217c50;fill-opacity:1;fill-rule:nonzero;stroke:none"
             d="M 0,0 C -0.499,-0.459 -1.404,-1.713 -2.28,-1.589 -1.432,-1.539 -0.059,0.942 0,0" /></g><g
           transform="translate(391.2676,133.8066)"
           id="g94"><path
             id="path96"
             style="fill:#217c50;fill-opacity:1;fill-rule:nonzero;stroke:none"
             d="m 0,0 c -0.38,-0.196 -0.565,-0.226 -0.923,-0.589 -0.807,-0.178 -0.275,0.541 0.249,0.94 L 0,0 Z" /></g><g
           transform="translate(198.4297,212.0703)"
           id="g98"><path
             id="path100"
             style="fill:#217c50;fill-opacity:1;fill-rule:nonzero;stroke:none"
             d="M 0,0 0.579,-1.351 0.025,-1.271 0,0 Z" /></g><g
           transform="translate(216.6216,314.5723)"
           id="g102"><path
             id="path104"
             style="fill:#217c50;fill-opacity:1;fill-rule:nonzero;stroke:none"
             d="M 0,0 C 0.52,1.396 0.982,0.548 1.173,0.71 0.473,-0.392 0.895,1.486 0,0" /></g><g
           transform="translate(256.8442,356.2739)"
           id="g106"><path
             id="path108"
             style="fill:#217c50;fill-opacity:1;fill-rule:nonzero;stroke:none"
             d="M 0,0 -0.384,-0.237 -0.81,0.767 0,0 Z" /></g><g
           transform="translate(364.7334,244.4355)"
           id="g110"><path
             id="path112"
             style="fill:#ec1e24;fill-opacity:1;fill-rule:nonzero;stroke:none"
             d="m 0,0 c 0,-3.289 -0.29,-8.141 -0.863,-14.555 -0.578,-6.413 -0.865,-11.184 -0.865,-14.307 0,-7.236 0.989,-13.652 2.959,-19.24 l -0.493,-0.493 c -2.137,5.921 -3.204,12.412 -3.204,19.49 0,3.122 0.283,7.894 0.862,14.305 0.573,6.416 0.865,11.349 0.865,14.8 L 0,0 Z m -9.62,20.722 -2.222,0 0,-1.232 2.222,0 0,1.232 z m -2.714,-27.627 c 0,-1.647 0.122,-4.814 0.369,-9.499 0.246,-4.687 0.369,-8.262 0.369,-10.732 -0.165,-3.781 -0.576,-6.907 -1.232,-9.376 l 0,-11.839 -0.74,0 0,11.839 c 0.986,3.29 1.396,7.98 1.234,14.067 -0.494,12.168 -0.741,17.344 -0.741,15.54 l 0.741,0 z m 0.492,52.299 -4.933,1.97 0,-1.233 4.441,-1.724 0.492,0.987 z m -4.193,-23.684 -3.208,0 0,-1.479 3.208,0 0,1.479 z m -6.661,0.742 -3.946,0 0,-1.484 3.946,0 0,1.484 z m 19.981,15.784 c -0.331,0.164 -1.811,1.397 -4.44,3.703 -1.974,1.807 -3.372,2.713 -4.194,2.713 -0.823,0 -1.479,-0.165 -1.973,-0.492 -0.493,-0.331 -1.153,-0.496 -1.973,-0.496 -3.292,0 -6.007,1.07 -8.142,3.208 -0.493,1.48 -2.139,3.208 -4.932,5.179 -1.153,0.327 -2.305,0.495 -3.454,0.495 4.602,-4.605 9.207,-7.734 13.815,-9.373 9.702,-3.126 14.8,-4.773 15.293,-4.937 m -26.642,-15.046 -3.946,0 0,-1.235 3.946,0 0,1.235 z m -26.642,45.883 c 0,-2.137 -1.071,-3.7 -3.206,-4.686 -2.799,-1.151 -4.279,-1.893 -4.441,-2.221 l -3.701,0 0,2.716 c -0.166,1.807 0.533,3.204 2.097,4.191 1.562,0.989 3.085,1.975 4.564,2.961 l 2.959,0 c 1.15,-1.318 1.728,-2.305 1.728,-2.961 m 5.921,-89.052 c -1.973,0 -4.36,-0.331 -7.153,-0.989 l 0,18.258 c -0.167,7.727 -3.293,11.593 -9.375,11.593 -3.949,0 -6.415,-5.02 -7.402,-15.047 -0.165,-5.428 -0.33,-10.775 -0.492,-16.035 -0.66,-0.496 -1.728,-1.812 -3.208,-3.949 -0.824,-0.988 -2.138,-1.479 -3.946,-1.479 l 0,39.222 c 0,0.822 0.45,1.767 1.355,2.837 0.903,1.069 1.439,1.686 1.605,1.85 0.82,-0.823 1.233,-1.97 1.233,-3.453 l 27.383,0 0,-32.808 z m -39.964,32.315 c 1.643,-7.238 2.301,-16.857 1.974,-28.86 0,-2.307 -0.166,-7.24 -0.494,-14.801 -0.166,-6.251 -0.247,-11.104 -0.247,-14.557 l -0.74,0 c 0,3.453 0.082,8.306 0.247,14.557 0.327,7.561 0.493,12.581 0.493,15.047 0.33,11.839 -0.246,21.376 -1.726,28.614 l 0.493,0 z m 35.03,69.564 c -2.961,-0.492 -6.908,-1.81 -11.842,-3.945 -1.811,-1.477 -3.292,-3.66 -4.44,-6.536 -1.153,-2.881 -2.306,-5.636 -3.453,-8.266 -4.279,-8.882 -9.868,-16.772 -16.775,-23.683 l -0.494,0.496 c 6.742,6.906 12.335,14.802 16.776,23.682 0.987,2.626 2.054,5.343 3.206,8.142 1.149,2.794 2.714,5.014 4.687,6.657 1.315,1.152 3.369,1.974 6.167,2.47 2.795,0.491 4.687,0.983 5.674,1.48 L -55.012,81.9 Z M 16.282,-56.979 c -4.115,-1.157 -8.226,-2.308 -12.336,-3.455 -4.934,-1.483 -9.127,-3.703 -12.582,-6.663 3.455,-3.451 6.25,-5.671 8.388,-6.659 -1.812,-0.988 -4.439,-2.14 -7.893,-3.456 -1.973,-0.495 -5.181,-2.057 -9.623,-4.686 -0.823,-0.654 -2.219,-2.878 -4.192,-6.662 -2.139,-4.273 -3.206,-7.316 -3.206,-9.128 0,-3.781 1.641,-9.128 4.933,-16.035 -4.44,0.662 -9.787,3.987 -16.034,9.992 -6.255,6.005 -8.882,11.227 -7.895,15.663 l -21.708,-0.983 c 0.819,4.11 -5.513,9.865 -18.995,17.268 l 42.429,0 c 0.328,0.981 0.823,2.627 1.48,4.931 l -40.455,0 c 0,0.989 -0.579,1.81 -1.727,2.466 -2.305,0.167 -5.594,0.903 -9.869,2.221 -2.798,2.136 -6.745,4.933 -11.841,8.387 l 66.855,0 31.577,-3.201 22.694,0 z m 40.702,103.11 c -1.153,-2.798 -2.305,-5.51 -3.453,-8.14 -1.319,-3.29 -2.799,-5.675 -4.44,-7.153 C 45.964,28.04 39.632,25.247 30.096,22.452 23.515,21.295 13.729,19.325 0.738,16.531 0.738,12.91 0.573,7.483 0.247,0.247 c -2.633,-1.811 -6.333,-4.439 -11.102,-7.895 0,7.732 -0.248,12.993 -0.741,15.79 -1.479,-5.756 -2.219,-11.593 -2.219,-17.514 -0.494,9.21 -0.905,14.143 -1.233,14.801 -0.987,3.454 -4.195,5.179 -9.621,5.179 -3.62,0 -6.005,-0.492 -7.154,-1.479 l 0,-26.889 c 1.149,-0.496 5.261,-0.904 12.333,-1.231 3.947,-0.168 6.497,-1.893 7.648,-5.183 -8.88,-0.165 -15.787,0.41 -20.721,1.729 -0.333,1.639 -0.492,3.781 -0.492,6.41 l 0,3.208 c 0,6.087 -1.402,10.03 -4.196,11.842 -1.972,-0.989 -3.701,-2.139 -5.181,-3.454 l 0,11.595 c 0,3.948 -1.399,7.561 -4.193,10.855 l -23.681,0 c -3.455,0 -6.993,-0.661 -10.608,-1.975 -4.607,-1.479 -7.485,-3.619 -8.635,-6.412 0.162,1.807 0,4.688 -0.493,8.634 -3.946,0.986 -10.114,1.888 -18.502,2.71 -11.185,1.315 -18.009,2.138 -20.475,2.471 17.269,0.161 40.373,1.724 69.32,4.686 7.399,0.82 14.388,2.381 20.968,4.687 0.328,1.806 1.235,5.506 2.712,11.099 1.151,5.096 1.727,7.976 1.727,8.635 0,0.492 -0.738,1.765 -2.22,3.826 -1.477,2.052 -2.304,3.492 -2.466,4.316 -0.492,4.6 -0.987,9.209 -1.479,13.813 -0.658,5.589 -3.207,8.386 -7.647,8.386 -0.495,0 -1.482,-0.12 -2.961,-0.37 -1.481,-0.246 -2.467,-0.367 -2.96,-0.367 0,1.639 -0.167,2.794 -0.495,3.454 -2.139,2.465 -4.277,4.932 -6.413,7.398 -1.645,1.976 -2.467,4.11 -2.467,6.417 0,0.654 0.162,1.64 0.493,2.957 0.329,1.314 0.494,2.221 0.494,2.716 4.109,0 6.741,0.329 7.893,0.983 0.163,-1.478 1.069,-3.453 2.715,-5.919 l 2.219,1.729 4.689,0 1.726,1.724 4.193,-0.987 2.466,2.47 4.196,-0.74 c 2.3,0 3.454,1.396 3.454,4.195 -0.495,-1.156 -0.292,-2.718 0.615,-4.689 0.901,-1.973 1.356,-3.046 1.356,-3.208 0,-2.136 -0.66,-4.193 -1.971,-6.17 -0.826,-1.15 -2.635,-2.875 -5.43,-5.177 -1.645,-1.478 -2.465,-3.125 -2.465,-4.933 0,-0.495 1.394,-2.059 4.194,-4.685 3.455,-2.962 5.753,-5.269 6.907,-6.913 0.329,-0.491 1.48,-2.875 3.453,-7.152 1.481,-3.126 3.208,-5.348 5.182,-6.662 4.109,-1.642 9.866,-4.031 17.268,-7.154 7.563,-3.616 13.647,-5.673 18.255,-6.163 6.906,-0.662 12.827,-0.989 17.762,-0.989 4.932,0 11.84,0.493 20.72,1.479 m -186.25,-21.707 c -0.493,3.12 -2.466,6 -5.921,8.635 l 0.495,0.492 c 3.615,-2.631 5.588,-5.675 5.921,-9.127 l -0.495,0 z m -8.139,13.812 c 12.988,0 33.302,0.907 60.931,2.716 18.747,1.48 32.316,4.934 40.704,10.361 l 0.492,-0.495 c -8.553,-5.592 -22.286,-9.046 -41.196,-10.362 -27.629,-1.97 -47.943,-2.957 -60.931,-2.957 l 0,0.737 z m 1.232,-3.453 c -0.166,0.823 -0.412,1.399 -0.74,1.729 l -0.246,0.245 -0.246,0.496 -0.247,0.246 0.493,0.492 0.246,-0.247 0.494,-0.491 0.246,-0.249 c 0.328,-0.492 0.494,-1.233 0.494,-2.221 l -0.494,0 z" /></g></g></g></g></svg>